<?xml version="1.0" encoding="UTF-8"?>
<svg id="Layer_2" data-name="Layer 2" xmlns="http://www.w3.org/2000/svg" viewBox="0 0 460.95 57">
  <defs>
    <style>
      .cls-1 {
        fill: #ff8d00;
      }

      .cls-2 {
        fill: #ff1887;
      }

      .cls-3 {
        fill: #1c80ff;
      }

      .cls-4 {
        fill: #ffd41c;
      }
    </style>
  </defs>
  <g id="Layer_2-2" data-name="Layer 2">
    <g>
      <g id="Group_9" data-name="Group 9">
        <path id="Path_16" data-name="Path 16" class="cls-2" d="M11.94,57L0,44.77V5.73L11.94,.71V57Z"/>
        <path id="Path_17" data-name="Path 17" class="cls-3" d="M44.92,14.03l-5.06,11.97L14.3,0H30.9l14.02,14.03Z"/>
        <path id="Path_18" data-name="Path 18" class="cls-1" d="M14.11,36.88v-13.12l16.7-6.97,9.05,9.21s-25.75,10.88-25.75,10.88Z"/>
        <path id="Path_19" data-name="Path 19" class="cls-4" d="M11.93,.71l9.05,9.21-9.05,3.8V.71h0Z"/>
      </g>
      <g>
        <path class="cls-3" d="M57.92,41.67V11.4h14.56c1.94,0,3.5,.23,4.71,.68,1.2,.46,2.13,1.12,2.77,1.98,.65,.87,1.08,1.93,1.32,3.19,.23,1.26,.35,2.71,.35,4.36,0,1.5-.11,2.87-.33,4.11-.22,1.25-.65,2.33-1.28,3.23-.63,.91-1.56,1.61-2.79,2.11s-2.86,.75-4.88,.75h-6.78v9.86h-7.66Zm7.66-15.66h3.83c1.06,0,1.88-.06,2.49-.18,.6-.12,1.05-.33,1.34-.64,.29-.31,.48-.75,.57-1.32,.09-.57,.13-1.33,.13-2.27s-.04-1.7-.11-2.29-.26-1.03-.55-1.34c-.29-.31-.73-.51-1.32-.62-.59-.1-1.39-.15-2.42-.15h-3.96v8.8Z"/>
        <path class="cls-3" d="M86.21,41.67V11.4h7.66v24.11h11.79v6.16h-19.45Z"/>
        <path class="cls-3" d="M107.02,41.67l9.59-30.27h10.43l9.64,30.27h-7.74l-1.8-5.94h-10.78l-1.76,5.94h-7.57Zm10.96-11.7h7.48l-3.61-11.97h-.31l-3.56,11.97Z"/>
        <path class="cls-3" d="M144.12,41.67v-10.38l-10.08-19.89h7.88l6.03,12.72h.31l5.94-12.72h7.7l-10.12,19.89v10.38h-7.66Z"/>
        <path class="cls-3" d="M166.95,31.42c-.15-1.47-.29-2.97-.44-4.51-.15-1.54-.29-3.03-.42-4.47-.13-1.44-.24-2.76-.33-3.98-.09-1.22-.15-2.27-.2-3.17-.04-.89-.07-1.55-.07-1.96v-1.94h8.14v1.94c0,.41-.02,1.06-.07,1.96-.04,.9-.11,1.95-.2,3.17-.09,1.22-.2,2.54-.33,3.98-.13,1.44-.27,2.93-.42,4.47-.15,1.54-.29,3.04-.44,4.51h-5.24Zm-1.14,10.25v-6.38h7.52v6.38h-7.52Z"/>
        <path d="M192.03,41.67V11.4h14.08c2,0,3.58,.31,4.75,.92,1.17,.62,2.01,1.49,2.51,2.62,.5,1.13,.75,2.49,.75,4.07,0,1.29-.18,2.43-.53,3.41-.35,.98-.9,1.78-1.65,2.4-.75,.62-1.74,1.06-2.97,1.32v.18c1.5,.26,2.64,.74,3.43,1.43s1.33,1.55,1.63,2.57c.29,1.03,.44,2.16,.44,3.39,0,1.06-.13,2.07-.37,3.04-.25,.97-.67,1.82-1.28,2.55-.6,.73-1.46,1.31-2.57,1.74-1.12,.42-2.55,.64-4.31,.64h-13.9Zm3.78-16.98h9.06c1.23,0,2.25-.18,3.06-.53,.81-.35,1.41-.9,1.8-1.65,.4-.75,.59-1.68,.59-2.79,0-1.23-.15-2.21-.46-2.95-.31-.73-.86-1.27-1.65-1.61s-1.91-.51-3.34-.51h-9.06v10.03Zm0,13.73h9.24c1.44,0,2.57-.17,3.39-.51s1.4-.89,1.74-1.67c.34-.78,.51-1.78,.51-3.01s-.18-2.28-.55-3.06c-.37-.78-.96-1.34-1.78-1.67s-1.92-.51-3.3-.51h-9.24v10.43Z"/>
        <path d="M221.42,41.67V19.23h3.21l.18,4.31h.26c.38-1.26,.92-2.23,1.63-2.9,.7-.67,1.55-1.14,2.55-1.39,1-.25,2.1-.37,3.3-.37v3.52c-2.02,0-3.58,.32-4.66,.97s-1.83,1.64-2.24,2.99c-.41,1.35-.62,3.05-.62,5.1v10.21h-3.61Z"/>
        <path d="M243.16,42.02c-1.64,0-3.01-.19-4.11-.57s-1.92-1.04-2.46-1.98c-.54-.94-.81-2.26-.81-3.96s.2-3.04,.59-4.03c.4-.98,1.09-1.68,2.09-2.09,1-.41,2.39-.62,4.18-.62,.29,0,.75,0,1.39,.02,.63,.02,1.36,.03,2.18,.04,.82,.02,1.65,.03,2.49,.04,.84,.02,1.61,.04,2.31,.07v-1.41c0-1.32-.08-2.35-.24-3.1-.16-.75-.49-1.31-.99-1.67-.5-.37-1.2-.6-2.09-.7-.9-.1-2.08-.15-3.54-.15-.65,0-1.41,.02-2.29,.07s-1.74,.1-2.57,.18-1.5,.15-2,.24v-2.9c1.11-.21,2.37-.36,3.76-.46,1.39-.1,2.84-.15,4.33-.15,1.58,0,2.93,.1,4.03,.29,1.1,.19,1.99,.49,2.68,.9,.69,.41,1.21,.95,1.56,1.63,.35,.67,.59,1.5,.73,2.46,.13,.97,.2,2.1,.2,3.39v14.12h-3.21l-.13-3.17h-.26c-.47,1.03-1.14,1.8-2,2.31-.87,.51-1.81,.84-2.84,.99-1.03,.15-2.01,.22-2.95,.22Zm1.32-2.95c.85,0,1.64-.05,2.38-.15,.73-.1,1.38-.3,1.94-.59,.56-.29,1-.73,1.32-1.32,.32-.62,.55-1.28,.68-2s.2-1.56,.2-2.53v-1.14h-7.48c-1.14,0-2.02,.09-2.64,.26s-1.03,.54-1.25,1.1c-.22,.56-.33,1.39-.33,2.51s.13,1.91,.4,2.46c.26,.56,.77,.93,1.52,1.12,.75,.19,1.84,.29,3.28,.29Z"/>
        <path d="M262.16,41.67V19.23h3.26l.13,3.21h.26c.32-.7,.77-1.32,1.34-1.85,.57-.53,1.35-.95,2.33-1.25,.98-.31,2.24-.46,3.76-.46,1.67,0,3.01,.18,4,.53,1,.35,1.77,.88,2.31,1.58,.54,.7,.9,1.61,1.08,2.71,.18,1.1,.26,2.41,.26,3.94v14.04h-3.56v-12.8c0-1.53-.07-2.74-.2-3.63-.13-.89-.39-1.57-.77-2.02-.38-.45-.94-.75-1.67-.9-.73-.15-1.7-.22-2.9-.22-1.44,0-2.57,.18-3.39,.55-.82,.37-1.42,.9-1.8,1.58-.38,.69-.62,1.53-.7,2.51-.09,.98-.13,2.11-.13,3.37v11.57h-3.61Z"/>
        <path d="M295.87,42.02c-1.61,0-2.96-.18-4.03-.53-1.07-.35-1.91-.96-2.53-1.83-.62-.87-1.06-2.05-1.32-3.54s-.4-3.37-.4-5.63,.13-4.19,.37-5.7,.68-2.69,1.3-3.54c.62-.85,1.45-1.46,2.51-1.83,1.06-.37,2.39-.55,4-.55,1.2,0,2.27,.1,3.21,.29,.94,.19,1.75,.52,2.44,.99,.69,.47,1.24,1.12,1.65,1.94h.22V8.98h3.61V41.67h-3.21l-.18-3.21h-.26c-.41,1.03-1,1.8-1.78,2.31-.78,.51-1.65,.85-2.62,1.01-.97,.16-1.97,.24-2.99,.24Zm1.41-3.17c1.5,0,2.68-.2,3.56-.62s1.5-1.06,1.85-1.94c.29-.82,.47-1.72,.53-2.68s.09-2.11,.09-3.43c0-1.09-.03-2.07-.09-2.97-.06-.89-.22-1.68-.48-2.35-.38-1-1.01-1.71-1.89-2.13-.88-.42-2.1-.64-3.65-.64-1.32,0-2.38,.09-3.17,.26-.79,.18-1.39,.55-1.8,1.12-.41,.57-.69,1.41-.84,2.51-.15,1.1-.22,2.59-.22,4.47s.07,3.37,.22,4.49c.15,1.12,.42,1.95,.84,2.51s1.02,.93,1.83,1.12,1.88,.29,3.23,.29Z"/>
        <path d="M321.96,42.02c-.85,0-1.76-.03-2.73-.09-.97-.06-1.92-.13-2.86-.2-.94-.07-1.79-.17-2.55-.29v-2.9c.7,.06,1.39,.12,2.05,.18,.66,.06,1.31,.11,1.96,.15,.64,.04,1.29,.07,1.94,.09,.65,.02,1.3,.02,1.98,.02,1.52,0,2.63-.11,3.32-.33,.69-.22,1.14-.59,1.36-1.12,.22-.53,.33-1.22,.33-2.07,0-.97-.08-1.67-.24-2.11-.16-.44-.44-.73-.84-.86-.4-.13-.99-.24-1.78-.33l-5.81-.66c-1.38-.15-2.42-.45-3.12-.9-.7-.45-1.19-1.11-1.45-1.96-.26-.85-.4-1.92-.4-3.21,0-1.47,.21-2.64,.62-3.52,.41-.88,1-1.54,1.76-1.98,.76-.44,1.69-.73,2.77-.86s2.3-.2,3.65-.2c.76,0,1.57,.03,2.42,.09,.85,.06,1.69,.13,2.51,.22s1.53,.19,2.11,.31v2.9c-.76-.12-1.53-.21-2.31-.29-.78-.07-1.57-.13-2.38-.15-.81-.03-1.62-.04-2.44-.04-1.12,0-2.07,.06-2.86,.18s-1.39,.41-1.78,.88c-.4,.47-.59,1.25-.59,2.33,0,.85,.07,1.49,.2,1.91,.13,.43,.4,.72,.81,.88,.41,.16,.98,.29,1.72,.37l6.07,.66c1.2,.12,2.15,.34,2.84,.68,.69,.34,1.19,.93,1.5,1.78,.31,.85,.46,2.13,.46,3.83,0,1.41-.17,2.54-.51,3.41s-.86,1.53-1.56,2c-.7,.47-1.57,.79-2.6,.95-1.03,.16-2.22,.24-3.56,.24Z"/>
        <path d="M347.39,41.67V11.4h13.24c1.94,0,3.48,.24,4.64,.73,1.16,.48,2.02,1.15,2.6,2s.96,1.86,1.17,3.01c.21,1.16,.31,2.43,.31,3.81s-.1,2.56-.29,3.72c-.19,1.16-.58,2.18-1.17,3.06s-1.47,1.57-2.64,2.07c-1.17,.5-2.74,.75-4.71,.75h-9.37v11.13h-3.78Zm3.78-14.43h8.14c1.44,0,2.57-.12,3.41-.35,.84-.23,1.46-.61,1.87-1.12,.41-.51,.67-1.17,.79-1.96s.18-1.74,.18-2.86-.05-2.07-.15-2.86c-.1-.79-.35-1.44-.75-1.94-.4-.5-1.01-.87-1.85-1.12-.84-.25-1.97-.37-3.41-.37h-8.23v12.58Z"/>
        <path d="M384.35,42.02c-1.85,0-3.38-.11-4.6-.33-1.22-.22-2.18-.58-2.88-1.08s-1.23-1.19-1.56-2.07-.55-1.99-.64-3.32c-.09-1.33-.13-2.93-.13-4.77s.04-3.44,.13-4.77c.09-1.33,.3-2.44,.64-3.32,.34-.88,.86-1.57,1.56-2.07s1.66-.86,2.88-1.08c1.22-.22,2.75-.33,4.6-.33s3.42,.11,4.62,.33,2.16,.58,2.88,1.08,1.25,1.19,1.58,2.07c.34,.88,.55,1.99,.64,3.32,.09,1.33,.13,2.93,.13,4.77s-.04,3.44-.13,4.77c-.09,1.33-.3,2.44-.64,3.32s-.87,1.57-1.58,2.07-1.68,.86-2.88,1.08c-1.2,.22-2.74,.33-4.62,.33Zm0-3.04c1.58,0,2.8-.1,3.65-.31,.85-.21,1.46-.6,1.83-1.19,.37-.59,.59-1.44,.66-2.57,.07-1.13,.11-2.62,.11-4.47s-.04-3.34-.11-4.47c-.07-1.13-.29-1.99-.66-2.57-.37-.59-.98-.98-1.83-1.19-.85-.21-2.07-.31-3.65-.31s-2.76,.1-3.63,.31c-.87,.21-1.47,.6-1.83,1.19-.35,.59-.57,1.45-.66,2.57-.09,1.13-.13,2.62-.13,4.47s.04,3.34,.13,4.47c.09,1.13,.31,1.99,.66,2.57,.35,.59,.96,.98,1.83,1.19,.87,.21,2.08,.31,3.63,.31Z"/>
        <path d="M400.85,41.67V19.23h3.21l.18,4.31h.26c.38-1.26,.92-2.23,1.63-2.9,.7-.67,1.55-1.14,2.55-1.39,1-.25,2.1-.37,3.3-.37v3.52c-2.02,0-3.58,.32-4.66,.97s-1.83,1.64-2.24,2.99c-.41,1.35-.62,3.05-.62,5.1v10.21h-3.61Z"/>
        <path d="M418.89,41.67V22.27h-4.53v-3.04h4.53v-6.51h3.56v6.51h5.37v3.04h-5.37v19.4h-3.56Z"/>
        <path d="M438.34,42.02c-1.64,0-3.01-.19-4.11-.57s-1.92-1.04-2.46-1.98c-.54-.94-.81-2.26-.81-3.96s.2-3.04,.59-4.03c.4-.98,1.09-1.68,2.09-2.09,1-.41,2.39-.62,4.18-.62,.29,0,.75,0,1.39,.02,.63,.02,1.36,.03,2.18,.04,.82,.02,1.65,.03,2.49,.04,.84,.02,1.61,.04,2.31,.07v-1.41c0-1.32-.08-2.35-.24-3.1-.16-.75-.49-1.31-.99-1.67-.5-.37-1.2-.6-2.09-.7-.9-.1-2.08-.15-3.54-.15-.65,0-1.41,.02-2.29,.07s-1.74,.1-2.57,.18-1.5,.15-2,.24v-2.9c1.11-.21,2.37-.36,3.76-.46,1.39-.1,2.84-.15,4.33-.15,1.58,0,2.93,.1,4.03,.29,1.1,.19,1.99,.49,2.68,.9,.69,.41,1.21,.95,1.56,1.63,.35,.67,.59,1.5,.73,2.46,.13,.97,.2,2.1,.2,3.39v14.12h-3.21l-.13-3.17h-.26c-.47,1.03-1.14,1.8-2,2.31-.87,.51-1.81,.84-2.84,.99-1.03,.15-2.01,.22-2.95,.22Zm1.32-2.95c.85,0,1.64-.05,2.38-.15,.73-.1,1.38-.3,1.94-.59,.56-.29,1-.73,1.32-1.32,.32-.62,.55-1.28,.68-2s.2-1.56,.2-2.53v-1.14h-7.48c-1.14,0-2.02,.09-2.64,.26s-1.03,.54-1.25,1.1c-.22,.56-.33,1.39-.33,2.51s.13,1.91,.4,2.46c.26,.56,.77,.93,1.52,1.12,.75,.19,1.84,.29,3.28,.29Z"/>
        <path d="M457.35,41.67V8.98h3.61V41.67h-3.61Z"/>
      </g>
    </g>
  </g>
</svg>